<svg xmlns="http://www.w3.org/2000/svg" xmlns:xlink="http://www.w3.org/1999/xlink" width="64" height="64" viewBox="0 0 64 64"><defs><path id="wdsqa" d="M188 142a32 32 0 1 1 0 64 32 32 0 0 1 0-64z"/><path id="wdsqc" d="M201.48 165.97c-.99.44-2.03.73-3.13.88a5.5 5.5 0 0 0 2.4-3.07c-1.06.64-2.22 1.1-3.45 1.35a5.4 5.4 0 0 0-3.97-1.76c-3 0-5.42 2.5-5.42 5.54 0 .44.03.87.12 1.27a15.26 15.26 0 0 1-11.19-5.8 5.58 5.58 0 0 0 1.67 7.4 5.28 5.28 0 0 1-2.45-.68v.06c0 2.7 1.88 4.93 4.35 5.45a5.21 5.21 0 0 1-2.45.08 5.5 5.5 0 0 0 5.07 3.86 10.77 10.77 0 0 1-8.03 2.29 15.07 15.07 0 0 0 8.33 2.49c9.99 0 15.45-8.45 15.45-15.77l-.02-.71a11 11 0 0 0 2.72-2.88"/><clipPath id="wdsqb"><use fill="#fff" xlink:href="#wdsqa"/></clipPath></defs><g><g transform="translate(-156 -142)"><g><use fill="#fff" fill-opacity="0" stroke="#fff" stroke-miterlimit="50" stroke-width="4" clip-path="url(&quot;#wdsqb&quot;)" xlink:href="#wdsqa"/></g><g><g><use fill="#fff" xlink:href="#wdsqc"/></g></g></g></g></svg>