<svg xmlns="http://www.w3.org/2000/svg" xmlns:xlink="http://www.w3.org/1999/xlink" width="25" height="26" viewBox="0 0 25 26"><defs><path id="sx43a" d="M315.79 355.14l-2.48-1.19c-.33-.15-.45-.08-.68.21l-.9 1.13c-.15.17-.33.22-.54.13a8.22 8.22 0 0 1-4.14-3.59c-.14-.23-.1-.41.07-.62.26-.3.5-.63.73-.96.15-.2.13-.42.03-.66-.28-.64-.54-1.3-.8-1.94-.35-.85-.36-.85-1.27-.83-.34.01-.64.1-.88.35a3.6 3.6 0 0 0-1.13 2.53c.08.39.13.78.23 1.16.23.85.72 1.56 1.2 2.28a11.42 11.42 0 0 0 6.4 4.84c.73.21 1.45.44 2.21.2 1.48-.47 2.12-1.13 2.18-2.46 0-.23.01-.46-.23-.58zm-4 9.57c-2.7.46-5.27.04-7.7-1.23a.66.66 0 0 0-.56-.04l-6.22 2.02-.31.08.09-.3 2.04-6.12a.57.57 0 0 0-.05-.5 12.3 12.3 0 0 1-1.62-6.64 12.4 12.4 0 0 1 10.11-11.78 12.31 12.31 0 0 1 14.28 9.96 12.41 12.41 0 0 1-10.06 14.55z"/></defs><g><g transform="translate(-297 -340)"><use fill="#fff" xlink:href="#sx43a"/></g></g></svg>