<svg xmlns="http://www.w3.org/2000/svg" viewBox="0 0 26.607 26.607"><defs><style>.a{fill:#00adee;}</style></defs><g transform="translate(-289.209 -15.393)"><path class="a" d="M13.3,26.607a13.3,13.3,0,1,1,13.3-13.3A13.3,13.3,0,0,1,13.3,26.607ZM9.978,13.3a2.652,2.652,0,0,0-.04-.436L14.65,10.09a2.722,2.722,0,0,0,1.647.553,2.661,2.661,0,1,0-2.708-2.661,2.578,2.578,0,0,0,.04.436L8.916,11.195a2.722,2.722,0,0,0-1.647-.552,2.661,2.661,0,1,0,0,5.321,2.723,2.723,0,0,0,1.647-.553l4.712,2.778a2.571,2.571,0,0,0-.04.436A2.709,2.709,0,1,0,16.3,15.964a2.721,2.721,0,0,0-1.647.552L9.938,13.739A2.659,2.659,0,0,0,9.978,13.3Z" transform="translate(289.209 15.393)"/></g></svg>