<svg xmlns="http://www.w3.org/2000/svg" xmlns:xlink="http://www.w3.org/1999/xlink" width="27" height="27" viewBox="0 0 27 27"><defs><path id="s16ba" d="M350.8 39.25a15.38 15.38 0 0 0 2.47-5.29c1.23.3 2.35.72 3.32 1.2a13.59 13.59 0 0 1-5.8 4.09zm-14.71-3.99c.94-.48 2.04-.89 3.24-1.22a15.7 15.7 0 0 0 2.48 5.21 13.49 13.49 0 0 1-5.72-3.99zm5.72-21.1a14.96 14.96 0 0 0-2.43 5.09c-1.2-.31-2.3-.72-3.24-1.18a13.34 13.34 0 0 1 5.67-3.91zm14.65 3.9c-.94.47-2.04.88-3.24 1.19a15.4 15.4 0 0 0-2.43-5.09c2.23.8 4.17 2.15 5.67 3.9zm-2.24 7.9c-.05-1.89-.26-3.68-.64-5.31 1.4-.38 2.65-.84 3.75-1.43a13.5 13.5 0 0 1 2.27 6.74zm-7.2 1.46h5.74a26.01 26.01 0 0 1-.56 4.8 27.9 27.9 0 0 0-5.18-.53zm-1.43 0v4.27c-1.82.05-3.58.25-5.19.58-.33-1.5-.53-3.14-.56-4.85zm0-5.88v4.42h-5.75c.03-1.76.26-3.44.59-4.98 1.6.33 3.34.51 5.16.56zm1.43 0c1.8-.05 3.52-.23 5.15-.56.34 1.54.54 3.22.6 4.98h-5.75zm4.77-1.96c-1.5.3-3.11.48-4.77.5V13.4c.3.03.61.03.89.08 1.63.92 3.01 3.14 3.88 6.1zm-7.12-6.11c.3-.05.61-.05.92-.08v6.7c-1.69-.03-3.3-.2-4.8-.51.9-2.97 2.27-5.19 3.88-6.11zm-9.42 5.75c1.1.59 2.37 1.05 3.75 1.43a28.69 28.69 0 0 0-.61 5.31H333c.13-2.47.94-4.77 2.25-6.74zm-2.25 8.2h5.39c.05 1.84.25 3.6.58 5.21a18.5 18.5 0 0 0-3.75 1.46 13.06 13.06 0 0 1-2.22-6.67zm7.76 6.26c1.5-.3 3.14-.48 4.83-.54V40c-.31 0-.62-.02-.92-.08-1.64-.91-3.04-3.21-3.9-6.23zm7.15 6.23a5 5 0 0 1-.9.08v-6.87c1.7.05 3.33.2 4.83.51-.87 3.04-2.27 5.37-3.93 6.28zm9.55-5.92a17.8 17.8 0 0 0-3.83-1.43c.33-1.59.54-3.33.59-5.14h5.38c-.15 2.4-.89 4.65-2.14 6.57z"/></defs><g><g transform="translate(-333 -13)"><use fill="#00adee" xlink:href="#s16ba"/></g></g></svg>