<svg xmlns="http://www.w3.org/2000/svg" xmlns:xlink="http://www.w3.org/1999/xlink" width="27" height="27"
     viewBox="0 0 27 27">
    <defs>
        <path id="j6cua"
              d="M304.19 26.7c0-.15-.02-.3-.04-.44l4.7-2.78a2.72 2.72 0 0 0 4.36-2.1 2.68 2.68 0 0 0-2.7-2.67 2.68 2.68 0 0 0-2.67 3.1l-4.72 2.78a2.72 2.72 0 0 0-4.35 2.1 2.72 2.72 0 1 0 4.36 2.1l4.7 2.8a2.69 2.69 0 0 0 2.67 3.1c1.5-.01 2.71-1.2 2.71-2.67a2.72 2.72 0 1 0-4.36-2.1l-4.7-2.79c.02-.14.04-.29.04-.43zM307.5 40a13.3 13.3 0 1 1 0-26.6 13.3 13.3 0 0 1 0 26.6z"/>
    </defs>
    <g>
        <g transform="translate(-291 -13)">
            <g>
                <use fill="#00adee" xlink:href="#j6cua"/>
            </g>
        </g>
    </g>
</svg>