<svg xmlns="http://www.w3.org/2000/svg" xmlns:xlink="http://www.w3.org/1999/xlink" width="117" height="18" viewBox="0 0 117 18"><defs><path id="yb41a" d="M143.04 24.37a6 6 0 0 0-1.28 1.2 5.32 5.32 0 0 0-.72 1.68 7.87 7.87 0 0 0 0 3.82c.16.64.4 1.2.72 1.68.32.48.72.88 1.2 1.2.48.31 1.03.47 1.75.47.64 0 1.2-.16 1.76-.47.47-.32.87-.72 1.2-1.2.31-.48.55-1.04.71-1.68a7.87 7.87 0 0 0 0-3.82c-.16-.64-.4-1.2-.72-1.68a4.27 4.27 0 0 0-1.2-1.2 3.03 3.03 0 0 0-1.75-.47c-.64 0-1.2.16-1.67.47m3.98-1.2a5.46 5.46 0 0 1 2.72 3.36c.24.8.32 1.6.32 2.47 0 .88-.08 1.68-.32 2.47a5.27 5.27 0 0 1-2.72 3.35 5.2 5.2 0 0 1-2.3.48c-.89 0-1.6-.16-2.32-.48a5.46 5.46 0 0 1-2.71-3.35c-.24-.8-.32-1.6-.32-2.47 0-.88.08-1.67.32-2.47.24-.8.56-1.44 1.03-2a9.4 9.4 0 0 1 1.76-1.35 5.2 5.2 0 0 1 2.31-.48c.8 0 1.6.16 2.23.48"/><path id="yb41b" d="M153.17 30.91c.16.64.31 1.2.63 1.68s.72.88 1.12 1.2c.48.31 1.04.47 1.68.47a3.3 3.3 0 0 0 1.83-.47 4.27 4.27 0 0 0 1.83-2.88 7.24 7.24 0 0 0-.63-5.34 4.27 4.27 0 0 0-1.2-1.2 3.3 3.3 0 0 0-1.83-.47c-.64 0-1.2.16-1.68.47-.4.32-.8.64-1.12 1.2a5.23 5.23 0 0 0-.63 1.68 7.24 7.24 0 0 0 0 3.66m7.5 4.15v-2.31h-.09c-.16.4-.4.72-.64 1.04-.31.31-.63.63-.95.8-.4.23-.72.4-1.2.55-.4.16-.8.16-1.2.16-.87 0-1.59-.16-2.23-.48a4.4 4.4 0 0 1-1.6-1.35 7.7 7.7 0 0 1-.95-2c-.24-.8-.32-1.6-.32-2.47 0-.88.08-1.67.32-2.47a5.16 5.16 0 0 1 2.55-3.35 4.86 4.86 0 0 1 3.43-.32c.4.08.8.24 1.12.48.32.24.64.48.96.8.23.31.47.71.63 1.11h.08V18.4h1.36v16.67z"/><path id="yb41c" d="M134.66 28.52c-.24-.08-.48-.08-.64-.16-2.15-.48-3.5-.8-3.5-2.55 0-1.36 1.11-2.15 2.87-2.15 1.99 0 3.19.95 3.35 2.7H138c-.24-2.38-1.83-3.74-4.54-3.74-2.56 0-4.23 1.36-4.23 3.43 0 2.07 1.36 2.71 4.39 3.43h.08c2.15.48 3.35.8 3.35 2.4 0 1.5-1.36 2.46-3.43 2.46-1.84 0-3.27-1.27-3.35-2.87H129c.16 2.4 2 3.91 4.7 3.91 2.8 0 4.63-1.43 4.63-3.5 0-1.76-.96-2.64-3.67-3.36"/><path id="yb41d" d="M172.23 30.44v.16c0 .31-.08.71-.24 1.2-.4 1.03-1.28 2.15-3.27 2.46-.32.08-.64.08-1.04.08-1.75 0-2.87-.95-2.87-2.47 0-.4.08-.72.24-1.11 0 0 0-.08.08-.08v-.08c.08-.16.16-.24.32-.4l.08-.08.08-.08c.16-.08.24-.24.4-.32.16-.08 1.27-.64 2.95-.8 1.27-.08 2.31-.24 3.03-.48l.16-.08v1.6l.08.48m-3.27-7.82c-2.8 0-4.63 1.6-4.79 3.83h1.2c.16-1.76 1.35-2.8 3.59-2.8 2.23 0 3.19.8 3.19 2.8 0 1.12-.32 1.27-1.36 1.51-.72.16-1.75.24-2.15.32h-.08a9.81 9.81 0 0 0-3.11.64c-1.28.56-1.92 1.6-1.92 3.03 0 2.15 1.52 3.51 4 3.51a5.8 5.8 0 0 0 4.46-2.07l.24-.24v.48c0 .87.32 1.67 1.11 1.83V26.3c0-2.4-1.51-3.67-4.38-3.67"/><path id="yb41e" d="M189.06 22.86v-3.67h-2.32v13.08c0 .48.08.96.16 1.36a1.91 1.91 0 0 0 1.44 1.52c.4.15.95.23 1.6.23.31 0 .55 0 .79-.08.24 0 .48-.08.72-.08V33.4c-.16 0-.24.08-.4.08h-.56c-.32 0-.56 0-.72-.16a.96.96 0 0 1-.4-.4 1.15 1.15 0 0 1-.16-.56v-7.58H191.61v-1.75H189.2v-.16z"/><path id="yb41f" d="M208.04 28.12h-6.22v-.16c0-.47.08-.95.24-1.35.15-.4.4-.8.63-1.12.24-.32.64-.56 1.04-.72.4-.16.8-.24 1.28-.24.47 0 .87.08 1.27.32.4.16.72.48.96.8.24.32.48.72.64 1.12.16.4.24.87.24 1.27v.16h-.08zm1.27-3.27a5.6 5.6 0 0 0-1.75-1.6 4.87 4.87 0 0 0-4.7-.07c-.65.32-1.28.8-1.76 1.43a5.76 5.76 0 0 0-1.12 2.08 8.44 8.44 0 0 0 0 5.1c.24.8.64 1.44 1.12 2.08a4.95 4.95 0 0 0 1.75 1.35 6.22 6.22 0 0 0 4.15.24 4.57 4.57 0 0 0 1.52-.8c.47-.32.87-.8 1.2-1.27.31-.48.47-1.04.63-1.6h-2.23c-.24.64-.56 1.2-1.04 1.52-.48.4-1.12.56-1.91.56-.56 0-1.04-.08-1.44-.32-.4-.24-.72-.48-1.04-.88a5.7 5.7 0 0 1-.63-1.2c-.16-.48-.16-.95-.16-1.43v-.16h8.69c.08-.88 0-1.76-.16-2.55a7.93 7.93 0 0 0-1.12-2.48"/><path id="yb41g" d="M236.11 22.62c-.8 0-1.51.16-2.07.56-.56.4-1.04.88-1.52 1.51l-.16.24-.08-.24a2.66 2.66 0 0 0-1.27-1.51 4 4 0 0 0-1.92-.48c-.48 0-.88.08-1.2.16-.31.08-.63.24-.95.4-.24.16-.48.4-.72.64s-.4.55-.64.8l-.08.07h-.24v-1.76h-2.15v12.3h2.31v-7.35c0-.55.08-1.03.24-1.43.16-.4.32-.8.56-1.04.24-.32.56-.48.88-.64a2.2 2.2 0 0 1 1.03-.24c.8 0 1.44.24 1.76.72.32.48.48 1.12.48 2.08v7.9h2.31v-7.27c0-1.11.24-1.91.64-2.55.4-.64 1.12-.96 2-.96.55 0 .95.08 1.27.24.32.16.56.4.72.72.16.32.24.72.24 1.12 0 .4.08.88.08 1.35v7.18h2.3v-8.37c0-1.52-.31-2.55-.95-3.2a4.16 4.16 0 0 0-2.87-.95"/><path id="yb41h" d="M219.28 29v1.52c0 1.75-1.43 3.03-3.43 3.03-1.35 0-2.15-.72-2.15-1.92 0-1.11.64-1.75 1.83-2 .32-.07.64-.07.96-.15.88-.16 1.76-.24 2.55-.64l.16-.08V29zm1.2-5.5c-.8-.56-2-.88-3.59-.88a6 6 0 0 0-3.59 1.04c-.8.64-1.28 1.6-1.28 2.79v.16h2.16c0-1.36.95-2.08 2.55-2.08 1.75 0 2.63.64 2.63 1.84 0 1.2-.64 1.27-2.55 1.51h-.24c-1.83.24-3.03.56-3.75 1.12-.88.64-1.35 1.52-1.35 2.87 0 2.16 1.43 3.51 3.82 3.51 1.6 0 2.96-.72 4-2l.23-.31v.4c0 1.2.72 1.75 2.15 1.75v-9.1c-.07-1.1-.47-1.98-1.2-2.62"/><path id="yb41i" d="M179.88 27.57c-1.35-.32-2.15-.72-2.15-1.68 0-.88.8-1.44 2.23-1.44 1.6 0 2.56.72 2.71 1.92H185c0-1.12-.48-2-1.28-2.71a5.64 5.64 0 0 0-3.59-1.04c-2.87 0-4.7 1.44-4.7 3.67 0 1.83 1.03 2.71 3.75 3.35l1.83.48c1.12.32 2 .56 2 1.6 0 1.1-1.04 1.83-2.64 1.83-1.83 0-2.87-.72-3.03-2.24h-2.31c0 1.28.48 2.24 1.27 2.95.88.72 2.16 1.12 3.83 1.12 1.6 0 2.95-.4 3.83-1.12a3.6 3.6 0 0 0 1.36-2.95c0-2.23-1.36-2.95-3.83-3.5z"/><path id="yb41j" d="M195.44 25.17c0 .08 0 .08-.08.16v.08h-.24v-2.39h-2.16V35.3h2.24v-5.82c0-.32 0-.64.08-.96 0-.16 0-.24.08-.32.31-2.07 1.83-3.43 3.58-3.43.24 0 .4 0 .64.08v-1.83c-.32-.08-.64-.16-1.03-.16-1.44-.08-2.64.88-3.11 2.31"/><path id="yb41k" d="M242.65 25.17v-1.11h.72c.32 0 .72.08.72.55 0 .56-.48.56-.96.56zm0 .32h.64l.88 1.44h.47l-.95-1.44c.4-.08.8-.32.8-.88 0-.55-.32-.87-1.04-.87h-1.2v3.19h.4zm.64-2.47a2.27 2.27 0 0 1 2.31 2.31c0 1.28-.96 2.31-2.31 2.31a2.27 2.27 0 0 1-2.31-2.3c0-1.36.95-2.4 2.3-2.32zm0-.4a2.69 2.69 0 0 0-2.71 2.71c0 1.52 1.2 2.71 2.7 2.71 1.52 0 2.72-1.2 2.72-2.7 0-1.52-1.2-2.72-2.71-2.72z"/></defs><g><g transform="translate(-129 -18)"><g><use fill="#1b1b1b" xlink:href="#yb41a"/></g><g><use fill="#1b1b1b" xlink:href="#yb41b"/></g><g><use fill="#1b1b1b" xlink:href="#yb41c"/></g><g><use fill="#1b1b1b" xlink:href="#yb41d"/></g><g><use fill="#1b1b1b" xlink:href="#yb41e"/></g><g><use fill="#1b1b1b" xlink:href="#yb41f"/></g><g><use fill="#1b1b1b" xlink:href="#yb41g"/></g><g><use fill="#1b1b1b" xlink:href="#yb41h"/></g><g><use fill="#1b1b1b" xlink:href="#yb41i"/></g><g><use fill="#1b1b1b" xlink:href="#yb41j"/></g><g><use fill="#1b1b1b" xlink:href="#yb41k"/></g></g></g></svg>